<svg t="1679910850377" class="icon" viewBox="0 0 1024 1024" version="1.1" xmlns="http://www.w3.org/2000/svg" p-id="5540" width="1000" height="1000"><path d="M0 81.279999v409.329462a354.33564 354.33564 0 0 0 30.209066 143.15722l49.673933 112.474021a77.173666 77.173666 0 0 0 123.489154 25.019l147.796954-139.101687a245.705486 245.705486 0 0 1 168.396353-66.782244h245.166442a77.173666 77.173666 0 0 0 77.176488-77.173666V81.279999A77.173666 77.173666 0 0 0 764.737546 4.103511H77.176488A77.173666 77.173666 0 0 0 0.002822 81.279999z" fill="#dbdbdb" p-id="5541"></path><path d="M963.458677 397.143106h-3.982155a58.863088 58.863088 0 0 0-58.865911 58.865911v109.61511a71.684444 71.684444 0 0 1-71.684443 71.684443h-231.504064a227.919842 227.919842 0 0 0-156.207176 61.950599l-82.118199 77.289377a12.491155 12.491155 0 0 0-0.671689 3.547534 61.216821 61.216821 0 0 0 61.213999 61.213999h193.816109a194.589398 194.589398 0 0 1 133.36411 52.888444l116.769443 109.902976a61.216821 61.216821 0 0 0 97.953688-19.845866l39.217599-88.795577a280.551463 280.551463 0 0 0 23.915511-113.346088V458.36275a61.216821 61.216821 0 0 0-61.216822-61.216821z" fill="#dbdbdb" p-id="5542"></path></svg>