<?xml version="1.0" standalone="no"?><!DOCTYPE svg PUBLIC "-//W3C//DTD SVG 1.1//EN" "http://www.w3.org/Graphics/SVG/1.1/DTD/svg11.dtd"><svg t="1681311468489" class="icon" viewBox="0 0 1024 1024" version="1.1" xmlns="http://www.w3.org/2000/svg" p-id="2809" xmlns:xlink="http://www.w3.org/1999/xlink" width="200" height="200"><path d="M387.729974 846.111591c-0.13726 0.135081-0.285413 0.257089-0.427029 0.387813a16.353498 16.353498 0 0 1-4.804085 3.076358l-152.787337 62.910638a1.196119 1.196119 0 0 1-0.111114 0.045753l-109.001532 44.883881a16.340426 16.340426 0 0 1-21.331881-21.331881l44.864272-108.957957 0.08497-0.209158 62.89103-152.735047a16.353498 16.353498 0 0 1 3.078536-4.808442c0.128545-0.139438 0.250553-0.287591 0.383456-0.422672l0.093685-0.1024 445.20034-445.200341L713.274826 166.236596l77.030944-77.030945a82.264238 82.264238 0 0 1 10.366366-8.756289V41.504681a16.340426 16.340426 0 0 1-14.512476-8.82383H65.355166v958.638298h512v-190.638298a16.340426 16.340426 0 0 1 16.340425-16.340425h190.638298V502.502945a16.340426 16.340426 0 0 1 16.340426-16.340426v-52.986553L387.830196 846.020085l-0.100222 0.091506z" fill="#FFFFFF" p-id="2810"></path><path d="M761.226349 817.021277h-151.190332v151.190332z" fill="#98D9D5" p-id="2811"></path><path d="M744.448 335.340391l-65.474996 65.477175c-3.189651 3.189651-7.3728 4.784477-11.55377 4.784477s-8.364119-1.594826-11.55377-4.784477a16.340426 16.340426 0 0 1 0-23.109719l65.474996-65.474996-53.919047-53.919047-416.458622 416.456443a103.095013 103.095013 0 0 1 20.756698 16.04194c12.810894 12.813072 21.732766 28.351728 26.220937 44.818519l296.302025-296.302025a16.342604 16.342604 0 0 1 23.10754 23.109719L321.047966 758.740426c16.46897 4.48817 32.005447 13.407864 44.81634 26.218757a103.190877 103.190877 0 0 1 16.046298 20.758877l416.456443-416.456443-53.919047-53.921226z" fill="#6DA8D6" p-id="2812"></path><path d="M165.088409 862.066383l-20.669549 50.197787 50.197787-20.669549z" fill="#274B6D" p-id="2813"></path><path d="M342.756766 808.071081c-15.438434-15.440613-36.404289-22.591183-56.089055-19.135728a16.344783 16.344783 0 0 1-18.922213-18.924391c3.457634-19.67823-3.695115-40.646264-19.135728-56.089056a70.072102 70.072102 0 0 0-17.3056-12.667097L178.56817 829.326706l48.785975 48.785975 128.074076-52.736a69.937021 69.937021 0 0 0-12.671455-17.3056z" fill="#FFCC75" p-id="2814"></path><path d="M821.483302 366.156255l-130.947813-130.945634 34.304-34.301821 130.945634 130.945634z" fill="#F2EBD9" p-id="2815"></path><path d="M958.409532 203.717174a48.526706 48.526706 0 0 0-14.041872-29.778791l-61.623013-61.623013a49.823047 49.823047 0 0 0-3.651541-3.300766c-0.577362-0.472783-1.191762-0.880204-1.786553-1.322485-0.69937-0.520715-1.385668-1.067574-2.106825-1.546893-0.849702-0.564289-1.736443-1.056681-2.616647-1.566503-0.49457-0.285413-0.973889-0.603506-1.474996-0.86931a47.387234 47.387234 0 0 0-3.780085-1.777839c-0.159047-0.06754-0.311557-0.152511-0.468426-0.220051a49.300153 49.300153 0 0 0-18.778417-3.675506c-6.557957 0-12.908936 1.26366-18.769702 3.673328-0.2048 0.08497-0.400885 0.193906-0.605685 0.281055-1.235336 0.527251-2.4576 1.087183-3.645004 1.714655-0.542502 0.28977-1.061038 0.63183-1.594826 0.943388-0.838809 0.488034-1.688511 0.954281-2.498995 1.494604-0.753838 0.501106-1.474996 1.071932-2.204868 1.618791-0.562111 0.420494-1.146009 0.806128-1.69069 1.252766-1.259302 1.030536-2.481566 2.128613-3.653719 3.302945l-65.477174 65.477174 130.949991 130.949992 65.474996-65.477175a48.504919 48.504919 0 0 0 14.041872-29.776612 50.524596 50.524596 0 0 0 0.002179-9.773754z" fill="#F2484B" p-id="2816"></path><path d="M784.333889 502.502945V784.340426h-190.638298a16.340426 16.340426 0 0 0-16.340425 16.340425V991.319149h-512V32.680851h720.806672a16.340426 16.340426 0 0 0 30.852902-7.516596V16.340426a16.340426 16.340426 0 0 0-16.340425-16.340426h-751.659575a16.340426 16.340426 0 0 0-16.340425 16.340426v991.319148a16.340426 16.340426 0 0 0 16.340425 16.340426h544.680851c0.54686 0 1.09154-0.028323 1.631864-0.082791 0.405243-0.041396 0.80177-0.108936 1.196119-0.178656 0.128545-0.021787 0.259268-0.032681 0.387813-0.056647 0.466247-0.093685 0.9216-0.215694 1.372596-0.344238 0.056647-0.01743 0.117651-0.028323 0.174298-0.045753 0.453174-0.13726 0.893277-0.300664 1.326842-0.474962 0.058826-0.023966 0.117651-0.041396 0.176477-0.063183 0.411779-0.172119 0.808306-0.366026 1.202655-0.568647 0.080613-0.043574 0.165583-0.076255 0.244017-0.119829a15.773957 15.773957 0 0 0 1.045788-0.625294c0.108936-0.06754 0.22223-0.128545 0.328987-0.200443 0.318094-0.213515 0.620936-0.446638 0.9216-0.68194 0.11983-0.093685 0.246196-0.176477 0.363847-0.27234a16.972255 16.972255 0 0 0 1.058859-0.95646c0.039217-0.041396 0.08497-0.071898 0.124187-0.113294l206.978724-206.978723 0.091506-0.100221c0.34206-0.348596 0.671047-0.705906 0.982604-1.085005 0.08497-0.1024 0.154689-0.213515 0.237481-0.315914 0.248374-0.318094 0.49457-0.636187 0.718979-0.971711 0.061004-0.089328 0.108936-0.185191 0.167762-0.276698 0.230945-0.357311 0.455353-0.721157 0.655795-1.098077 0.037038-0.065362 0.063183-0.13726 0.098043-0.2048a17.386213 17.386213 0 0 0 0.586077-1.239693c0.019609-0.047932 0.032681-0.098043 0.052289-0.143796 0.178655-0.44446 0.346417-0.895455 0.485855-1.357345 0.01743-0.054468 0.026145-0.113294 0.043575-0.167761 0.132902-0.453174 0.252732-0.910706 0.346417-1.376953 0.026145-0.132902 0.037038-0.265804 0.061004-0.398707 0.06754-0.394349 0.13726-0.78434 0.176477-1.187404 0.054468-0.540323 0.082791-1.085004 0.082791-1.631864V502.502945a16.340426 16.340426 0 0 0-16.340425-16.340426 16.340426 16.340426 0 0 0-16.342605 16.340426zM761.226349 817.021277l-151.190332 151.190332V817.021277h151.190332z" fill="#082947" p-id="2817"></path><path d="M991.325685 208.601872c0-21.874383-8.470877-42.391421-23.850485-57.775387l-61.623013-61.623013a81.514757 81.514757 0 0 0-19.270808-14.303319c-11.688851-6.235506-24.828732-9.544987-38.500222-9.544987-13.882826 0-27.212255 3.422774-39.034008 9.845651a81.410179 81.410179 0 0 0-8.372834 5.248545 81.900391 81.900391 0 0 0-10.366366 8.756289l-77.030945 77.028766-57.413719 57.415898-445.20034 445.20034-0.093685 0.1024c-0.132902 0.13726-0.254911 0.283234-0.383456 0.422673a16.309923 16.309923 0 0 0-3.078536 4.808442l-62.89103 152.735047c-0.028323 0.069719-0.058826 0.13726-0.08497 0.209157l-44.864272 108.957958a16.340426 16.340426 0 0 0 21.331881 21.331881l109.001532-44.883881 0.111114-0.045753 152.787337-62.910639a16.353498 16.353498 0 0 0 4.804085-3.076357c0.143796-0.130723 0.28977-0.252732 0.427029-0.387813l0.100222-0.091506L800.674315 433.173787l32.349685-32.349685 134.449021-134.4512c15.381787-15.379609 23.852664-35.896647 23.852664-57.77103z m-46.960204 34.661311l-65.474996 65.477174-130.949991-130.949991 65.477174-65.477175c1.174332-1.174332 2.396596-2.272409 3.653719-3.302944 0.544681-0.446638 1.128579-0.832272 1.69069-1.252766 0.732051-0.54686 1.45103-1.117685 2.204868-1.618792 0.810485-0.538145 1.660187-1.00657 2.498995-1.494604 0.533787-0.311557 1.052323-0.653617 1.594826-0.943387a48.70754 48.70754 0 0 1 3.645004-1.714655c0.2048-0.087149 0.400885-0.196085 0.605685-0.281056a49.304511 49.304511 0 0 1 18.769702-3.673327c6.562315 0 12.913294 1.26366 18.778417 3.675506 0.159047 0.065362 0.311557 0.150332 0.468426 0.220051 1.283268 0.542502 2.549106 1.1264 3.780085 1.777838 0.501106 0.265804 0.980426 0.586077 1.474996 0.869311 0.880204 0.507643 1.766945 1.002213 2.616647 1.566502 0.721157 0.479319 1.407455 1.026179 2.106825 1.546894 0.594791 0.442281 1.209191 0.851881 1.786553 1.322485 1.257123 1.030536 2.479387 2.126434 3.651541 3.300766l61.623013 61.623013a48.515813 48.515813 0 0 1 14.041872 29.778791 50.435268 50.435268 0 0 1 0 9.769396 48.52017 48.52017 0 0 1-14.044051 29.78097z m-578.498996 541.696c-12.810894-12.810894-28.349549-21.732766-44.81634-26.218757l296.302025-296.299847a16.340426 16.340426 0 0 0-23.10754-23.109719l-296.306383 296.302025c-4.48817-16.46897-13.410043-32.005447-26.220936-44.818519a103.075404 103.075404 0 0 0-20.756698-16.04194l416.456442-416.456443 53.919047 53.919047-65.474996 65.474996a16.340426 16.340426 0 0 0 23.107541 23.109719l65.474996-65.477175 53.919046 53.921226-416.449906 416.456442a103.140766 103.140766 0 0 0-16.046298-20.761055z m-200.778076 77.1072l29.528238 29.528238-50.197787 20.669549 20.669549-50.197787z m62.265736 16.046298L178.56817 829.326706l52.736-128.074076a70.072102 70.072102 0 0 1 17.3056 12.667098c15.440613 15.442791 22.59554 36.410826 19.135728 56.089055a16.340426 16.340426 0 0 0 18.922213 18.924391c19.682587-3.455455 40.648443 3.695115 56.089055 19.135728a70.035064 70.035064 0 0 1 12.671455 17.3056l-128.074076 52.738179z m594.1248-511.960783l-130.949992-130.949992 34.301821-34.301821 130.949992 130.949992-34.301821 34.301821z" fill="#082947" p-id="2818" data-spm-anchor-id="a313x.7781069.0.i4" class="selected"></path></svg>