<?xml version="1.0" standalone="no"?><!DOCTYPE svg PUBLIC "-//W3C//DTD SVG 1.1//EN" "http://www.w3.org/Graphics/SVG/1.1/DTD/svg11.dtd"><svg t="1681960063193" class="icon" viewBox="0 0 1024 1024" version="1.1" xmlns="http://www.w3.org/2000/svg" p-id="7258" xmlns:xlink="http://www.w3.org/1999/xlink" width="200" height="200"><path d="M972.8 965.12H51.2c-15.36 0-25.6-10.24-25.6-25.6V309.76c0-12.8 10.24-25.6 25.6-25.6h921.6c15.36 0 25.6 10.24 25.6 25.6v627.2c0 15.36-10.24 28.16-25.6 28.16zM125.44 865.28h775.68V384H125.44v481.28zM837.12 240.64H186.88c-15.36 0-25.6-15.36-25.6-38.4s10.24-38.4 25.6-38.4h650.24c15.36 0 25.6 15.36 25.6 38.4s-10.24 38.4-25.6 38.4z m-107.52-115.2h-435.2c-15.36 0-25.6-15.36-25.6-38.4s10.24-38.4 25.6-38.4h435.2c15.36 0 25.6 15.36 25.6 38.4s-12.8 38.4-25.6 38.4zM235.52 486.4h215.04c20.48 0 38.4 17.92 38.4 38.4v43.52c0 20.48-17.92 38.4-38.4 38.4H235.52c-20.48 0-38.4-17.92-38.4-38.4v-43.52c0-20.48 15.36-38.4 38.4-38.4z m337.92 0h215.04c20.48 0 38.4 17.92 38.4 38.4v43.52c0 20.48-17.92 38.4-38.4 38.4h-215.04c-20.48 0-38.4-17.92-38.4-38.4v-43.52c0-20.48 17.92-38.4 38.4-38.4z" fill="#10385C" p-id="7259"></path></svg>