<?xml version="1.0" standalone="no"?><!DOCTYPE svg PUBLIC "-//W3C//DTD SVG 1.1//EN" "http://www.w3.org/Graphics/SVG/1.1/DTD/svg11.dtd"><svg t="1681960311299" class="icon" viewBox="0 0 1024 1024" version="1.1" xmlns="http://www.w3.org/2000/svg" p-id="13254" xmlns:xlink="http://www.w3.org/1999/xlink" width="200" height="200"><path d="M667.1 156.6L869.5 359 397.2 831.3 194.8 628.9l472.3-472.3m0-58.7c-11.7 0-23.4 4.5-32.3 13.4L149.5 596.5c-17.9 17.9-17.9 46.8 0 64.7l215.3 215.3c8.9 8.9 20.6 13.4 32.3 13.4 11.7 0 23.4-4.5 32.3-13.4l485.3-485.3c17.9-17.9 17.9-46.8 0-64.7L699.4 111.3c-8.9-9-20.6-13.4-32.3-13.4z" fill="#0C90F8" p-id="13255"></path><path d="M411.6 733.3c-7 0-14-2.7-19.4-8-10.7-10.7-10.7-28.1 0-38.8l333.7-333.7c10.7-10.7 28.1-10.7 38.8 0s10.7 28.1 0 38.8L431 725.2c-5.3 5.4-12.3 8.1-19.4 8.1z" fill="#4C4F54" p-id="13256"></path><path d="M143.7 928.2c-12 0-23.5-4.7-32.3-13.5C100 903.3 95.5 887.5 99 872l37.2-245.9c2.3-15 16.2-25.2 31.2-23 15 2.3 25.3 16.2 23 31.2l-35.8 237.2 237.1-35.8c15.1-2.3 29 8.1 31.2 23 2.3 15-8.1 29-23 31.2L154 927.1c-3.4 0.7-6.9 1.1-10.3 1.1z" fill="#0C90F8" p-id="13257"></path></svg>