<?xml version="1.0" standalone="no"?><!DOCTYPE svg PUBLIC "-//W3C//DTD SVG 1.1//EN" "http://www.w3.org/Graphics/SVG/1.1/DTD/svg11.dtd"><svg t="1681959738903" class="icon" viewBox="0 0 1024 1024" version="1.1" xmlns="http://www.w3.org/2000/svg" p-id="4925" xmlns:xlink="http://www.w3.org/1999/xlink" width="200" height="200"><path d="M792.7808 895.5392H244.48c-90.2656 0-163.3792-73.1648-163.3792-163.3792V333.0048c0-90.2656 73.1648-163.3792 163.3792-163.3792h548.2496c90.2656 0 163.3792 73.1648 163.3792 163.3792V732.16c0.0512 90.2656-73.1136 163.3792-163.328 163.3792z" fill="#1296db" p-id="4926" data-spm-anchor-id="a313x.7781069.0.i0" class="selected"></path><path d="M434.2784 505.856c30.7712-20.1728 51.0976-54.8864 51.0976-94.4128 0-62.3104-50.4832-112.7936-112.7936-112.7936S259.7376 349.184 259.7376 411.4432c0 39.5776 20.4288 74.3936 51.2512 94.5152-86.2208 26.88-148.3264 108.7488-148.3264 203.5712a37.2224 37.2224 0 0 0 37.2224 37.2224h345.1904a37.2224 37.2224 0 0 0 37.2224-37.2224v-3.1232c0.1024-94.3616-62.2592-174.1824-148.0192-200.5504zM812.1344 400.7936h-167.7824c-27.136 0-49.152-22.016-49.152-49.152s22.016-49.152 49.152-49.152h167.7824c27.136 0 49.152 22.016 49.152 49.152s-22.016 49.152-49.152 49.152zM812.1344 573.7984h-118.6304c-27.136 0-49.152-22.016-49.152-49.152s22.016-49.152 49.152-49.152h118.6304c27.136 0 49.152 22.016 49.152 49.152s-22.016 49.152-49.152 49.152zM812.1344 746.8032h-79.3088c-27.136 0-49.152-22.016-49.152-49.152s22.016-49.152 49.152-49.152h79.3088c27.136 0 49.152 22.016 49.152 49.152s-22.016 49.152-49.152 49.152z" fill="#FFDF99" p-id="4927"></path></svg>